M48
;Layer_Color=9474304
;FILE_FORMAT=4:4
METRIC,LZ
;TYPE=PLATED
T1F00S00C0.2000
T2F00S00C1.1900
;TYPE=NON_PLATED
T3F00S00C1.9800
%
T01
X0028575Y00254
X003175
X00363Y002995
X00381Y003175
X0036281Y003395
X0036297Y003495
X0036313Y003595
X0036319Y0036927
X00301625Y0034925
X0028575Y00381
X0042712Y0036743
X0045466Y0039116
X0047625Y00381
X0047632Y003695
X0047711Y003395
X0047695Y003295
X0047679Y003195
X0047647Y002995
X0047625Y0028956
Y00254
X0048302Y002595
X00508Y00254
X0053975
X005715
X0060325
X00635
X0066675
X006985
X0073025
X00762
X00777875Y0028575
X0078359Y0030353
X0071628Y003048
X00710056Y00304891
X0070358Y003048
X0070612Y0030988
X0071247
X0071882
X0069977
X0066675Y003175
X00635
X0060325
X005715
X0055245Y0032258
X0054729Y0032758
Y0031758
X0052836Y0030349
X0053086Y0029464
X00555625Y0028575
X00587375
X00619125
X00650875
X00682625
X006985Y00381
X0066675
X00635
X0060325
X005715
X0053975
X00508
X0050546Y0033528
X0052336Y0034278
X0053848Y0034671
X0041275Y003175
X007366Y0036449
Y0037026
X007493Y0037084
Y0036449
X00762
Y0037084
X007747
T02
X0028536Y0032258
X0077636
T03
X0077636Y0026958
M30
