%TF.GenerationSoftware,Altium Limited,Altium Designer,23.6.0 (18)*%
G04 Layer_Physical_Order=5*
G04 Layer_Color=16737945*
%FSLAX45Y45*%
%MOMM*%
%TF.SameCoordinates,DE65B9CC-D9CF-42CD-B8C9-10693606ABAB*%
%TF.FilePolarity,Positive*%
%TF.FileFunction,Copper,L5,Inr,Signal*%
%TF.Part,Single*%
G01*
G75*
%TA.AperFunction,ComponentPad*%
%ADD24C,1.78500*%
%ADD25C,1.98000*%
%TA.AperFunction,ViaPad*%
%ADD26C,0.45000*%
G36*
X7879009Y3056393D02*
X7866309Y3053867D01*
X7865741Y3055239D01*
X7855839Y3065141D01*
X7842902Y3070500D01*
X7828898D01*
X7815961Y3065141D01*
X7806059Y3055239D01*
X7800700Y3042302D01*
Y3028298D01*
X7806059Y3015361D01*
X7815961Y3005459D01*
X7828898Y3000100D01*
X7842902D01*
X7855839Y3005459D01*
X7865741Y3015361D01*
X7866309Y3016733D01*
X7879009Y3014207D01*
Y2768440D01*
X7866742Y2765153D01*
X7862825Y2771938D01*
X7839738Y2795025D01*
X7811462Y2811350D01*
X7799949Y2814435D01*
X7798689Y2827659D01*
X7808591Y2837561D01*
X7813950Y2850498D01*
Y2864502D01*
X7808591Y2877439D01*
X7798689Y2887341D01*
X7785752Y2892700D01*
X7771748D01*
X7758811Y2887341D01*
X7748909Y2877439D01*
X7743550Y2864502D01*
Y2850498D01*
X7748909Y2837561D01*
X7753970Y2832500D01*
X7748709Y2819800D01*
X7747275D01*
X7715738Y2811350D01*
X7687462Y2795025D01*
X7664375Y2771938D01*
X7648050Y2743662D01*
X7639600Y2712125D01*
Y2679475D01*
X7648050Y2647938D01*
X7664375Y2619662D01*
X7687462Y2596575D01*
X7715738Y2580250D01*
X7747275Y2571800D01*
X7779925D01*
X7811462Y2580250D01*
X7839738Y2596575D01*
X7862825Y2619662D01*
X7866742Y2626447D01*
X7879009Y2623160D01*
Y2420691D01*
X4465900D01*
Y2905000D01*
X3585900D01*
X3581400Y2900500D01*
Y2420691D01*
X2725491D01*
Y4018209D01*
X7879009D01*
Y3056393D01*
D02*
G37*
%LPC*%
G36*
X6992002Y3845200D02*
X6977998D01*
X6965061Y3839841D01*
X6955159Y3829939D01*
X6949800Y3817002D01*
Y3802998D01*
X6955159Y3790061D01*
X6965061Y3780159D01*
X6977998Y3774800D01*
X6992002D01*
X7004939Y3780159D01*
X7014841Y3790061D01*
X7020200Y3802998D01*
Y3817002D01*
X7014841Y3829939D01*
X7004939Y3839841D01*
X6992002Y3845200D01*
D02*
G37*
G36*
X6674502D02*
X6660498D01*
X6647561Y3839841D01*
X6637659Y3829939D01*
X6632300Y3817002D01*
Y3802998D01*
X6637659Y3790061D01*
X6647561Y3780159D01*
X6660498Y3774800D01*
X6674502D01*
X6687439Y3780159D01*
X6697341Y3790061D01*
X6702700Y3802998D01*
Y3817002D01*
X6697341Y3829939D01*
X6687439Y3839841D01*
X6674502Y3845200D01*
D02*
G37*
G36*
X6357002D02*
X6342998D01*
X6330061Y3839841D01*
X6320159Y3829939D01*
X6314800Y3817002D01*
Y3802998D01*
X6320159Y3790061D01*
X6330061Y3780159D01*
X6342998Y3774800D01*
X6357002D01*
X6369939Y3780159D01*
X6379841Y3790061D01*
X6385200Y3802998D01*
Y3817002D01*
X6379841Y3829939D01*
X6369939Y3839841D01*
X6357002Y3845200D01*
D02*
G37*
G36*
X6039502D02*
X6025498D01*
X6012561Y3839841D01*
X6002659Y3829939D01*
X5997300Y3817002D01*
Y3802998D01*
X6002659Y3790061D01*
X6012561Y3780159D01*
X6025498Y3774800D01*
X6039502D01*
X6052439Y3780159D01*
X6062341Y3790061D01*
X6067700Y3802998D01*
Y3817002D01*
X6062341Y3829939D01*
X6052439Y3839841D01*
X6039502Y3845200D01*
D02*
G37*
G36*
X5722002D02*
X5707998D01*
X5695061Y3839841D01*
X5685159Y3829939D01*
X5679800Y3817002D01*
Y3802998D01*
X5685159Y3790061D01*
X5695061Y3780159D01*
X5707998Y3774800D01*
X5722002D01*
X5734939Y3780159D01*
X5744841Y3790061D01*
X5750200Y3802998D01*
Y3817002D01*
X5744841Y3829939D01*
X5734939Y3839841D01*
X5722002Y3845200D01*
D02*
G37*
G36*
X5404502D02*
X5390498D01*
X5377561Y3839841D01*
X5367659Y3829939D01*
X5362300Y3817002D01*
Y3802998D01*
X5367659Y3790061D01*
X5377561Y3780159D01*
X5390498Y3774800D01*
X5404502D01*
X5417439Y3780159D01*
X5427341Y3790061D01*
X5432700Y3802998D01*
Y3817002D01*
X5427341Y3829939D01*
X5417439Y3839841D01*
X5404502Y3845200D01*
D02*
G37*
G36*
X5087002D02*
X5072998D01*
X5060061Y3839841D01*
X5050159Y3829939D01*
X5044800Y3817002D01*
Y3802998D01*
X5050159Y3790061D01*
X5060061Y3780159D01*
X5072998Y3774800D01*
X5087002D01*
X5099939Y3780159D01*
X5109841Y3790061D01*
X5115200Y3802998D01*
Y3817002D01*
X5109841Y3829939D01*
X5099939Y3839841D01*
X5087002Y3845200D01*
D02*
G37*
G36*
X4769502D02*
X4755498D01*
X4742561Y3839841D01*
X4732659Y3829939D01*
X4727300Y3817002D01*
Y3802998D01*
X4732659Y3790061D01*
X4742561Y3780159D01*
X4755498Y3774800D01*
X4769502D01*
X4782439Y3780159D01*
X4792341Y3790061D01*
X4797700Y3802998D01*
Y3817002D01*
X4792341Y3829939D01*
X4782439Y3839841D01*
X4769502Y3845200D01*
D02*
G37*
G36*
X2864502D02*
X2850498D01*
X2837561Y3839841D01*
X2827659Y3829939D01*
X2822300Y3817002D01*
Y3802998D01*
X2827659Y3790061D01*
X2837561Y3780159D01*
X2850498Y3774800D01*
X2864502D01*
X2877439Y3780159D01*
X2887341Y3790061D01*
X2892700Y3802998D01*
Y3817002D01*
X2887341Y3829939D01*
X2877439Y3839841D01*
X2864502Y3845200D01*
D02*
G37*
G36*
X4770202Y3730200D02*
X4756198D01*
X4743261Y3724841D01*
X4733359Y3714939D01*
X4728000Y3702002D01*
Y3687998D01*
X4733359Y3675061D01*
X4743261Y3665159D01*
X4756198Y3659800D01*
X4770202D01*
X4783139Y3665159D01*
X4793041Y3675061D01*
X4798400Y3687998D01*
Y3702002D01*
X4793041Y3714939D01*
X4783139Y3724841D01*
X4770202Y3730200D01*
D02*
G37*
G36*
X3638906Y3727902D02*
X3624902D01*
X3611965Y3722543D01*
X3602063Y3712641D01*
X3596704Y3699704D01*
Y3685700D01*
X3602063Y3672763D01*
X3611965Y3662861D01*
X3624902Y3657502D01*
X3638906D01*
X3651843Y3662861D01*
X3661745Y3672763D01*
X3667104Y3685700D01*
Y3699704D01*
X3661745Y3712641D01*
X3651843Y3722543D01*
X3638906Y3727902D01*
D02*
G37*
G36*
X4278202Y3709500D02*
X4264198D01*
X4251261Y3704141D01*
X4241359Y3694239D01*
X4236000Y3681302D01*
Y3667298D01*
X4241359Y3654361D01*
X4251261Y3644459D01*
X4264198Y3639100D01*
X4278202D01*
X4291139Y3644459D01*
X4301041Y3654361D01*
X4306400Y3667298D01*
Y3681302D01*
X4301041Y3694239D01*
X4291139Y3704141D01*
X4278202Y3709500D01*
D02*
G37*
G36*
X7627002Y3743600D02*
X7612998D01*
X7600061Y3738241D01*
X7590159Y3728339D01*
X7584800Y3715402D01*
Y3701398D01*
X7590159Y3688461D01*
X7593673Y3684947D01*
X7598866Y3676650D01*
X7593673Y3668353D01*
X7590159Y3664839D01*
X7584800Y3651902D01*
Y3637898D01*
X7590159Y3624961D01*
X7600061Y3615059D01*
X7612998Y3609700D01*
X7627002D01*
X7639939Y3615059D01*
X7649841Y3624961D01*
X7655200Y3637898D01*
Y3651902D01*
X7649841Y3664839D01*
X7646327Y3668353D01*
X7641134Y3676650D01*
X7646327Y3684947D01*
X7649841Y3688461D01*
X7655200Y3701398D01*
Y3715402D01*
X7649841Y3728339D01*
X7639939Y3738241D01*
X7627002Y3743600D01*
D02*
G37*
G36*
X7500002D02*
X7485998D01*
X7473061Y3738241D01*
X7463159Y3728339D01*
X7457800Y3715402D01*
Y3701398D01*
X7463159Y3688461D01*
X7466673Y3684947D01*
X7471866Y3676650D01*
X7466673Y3668353D01*
X7463159Y3664839D01*
X7457800Y3651902D01*
Y3637898D01*
X7463159Y3624961D01*
X7473061Y3615059D01*
X7485998Y3609700D01*
X7500002D01*
X7512939Y3615059D01*
X7522841Y3624961D01*
X7528200Y3637898D01*
Y3651902D01*
X7522841Y3664839D01*
X7519327Y3668353D01*
X7514134Y3676650D01*
X7519327Y3684947D01*
X7522841Y3688461D01*
X7528200Y3701398D01*
Y3715402D01*
X7522841Y3728339D01*
X7512939Y3738241D01*
X7500002Y3743600D01*
D02*
G37*
G36*
X7373002Y3737800D02*
X7358998D01*
X7346061Y3732441D01*
X7336159Y3722539D01*
X7330800Y3709602D01*
Y3695598D01*
X7336159Y3682661D01*
X7345070Y3673750D01*
X7336159Y3664839D01*
X7330800Y3651902D01*
Y3637898D01*
X7336159Y3624961D01*
X7346061Y3615059D01*
X7358998Y3609700D01*
X7373002D01*
X7385939Y3615059D01*
X7395841Y3624961D01*
X7401200Y3637898D01*
Y3651902D01*
X7395841Y3664839D01*
X7386930Y3673750D01*
X7395841Y3682661D01*
X7401200Y3695598D01*
Y3709602D01*
X7395841Y3722539D01*
X7385939Y3732441D01*
X7373002Y3737800D01*
D02*
G37*
G36*
X3638302Y3630200D02*
X3624298D01*
X3611361Y3624841D01*
X3601459Y3614939D01*
X3596100Y3602002D01*
Y3587998D01*
X3601459Y3575061D01*
X3611361Y3565159D01*
X3624298Y3559800D01*
X3638302D01*
X3651239Y3565159D01*
X3661141Y3575061D01*
X3666500Y3587998D01*
Y3602002D01*
X3661141Y3614939D01*
X3651239Y3624841D01*
X3638302Y3630200D01*
D02*
G37*
G36*
X3636702Y3530200D02*
X3622698D01*
X3609761Y3524841D01*
X3599859Y3514939D01*
X3594500Y3502002D01*
Y3487998D01*
X3599859Y3475061D01*
X3609761Y3465159D01*
X3622698Y3459800D01*
X3636702D01*
X3649639Y3465159D01*
X3659541Y3475061D01*
X3664900Y3487998D01*
Y3502002D01*
X3659541Y3514939D01*
X3649639Y3524841D01*
X3636702Y3530200D01*
D02*
G37*
G36*
X3023252Y3527700D02*
X3009248D01*
X2996311Y3522341D01*
X2986409Y3512439D01*
X2981050Y3499502D01*
Y3485498D01*
X2986409Y3472561D01*
X2996311Y3462659D01*
X3009248Y3457300D01*
X3023252D01*
X3036189Y3462659D01*
X3046091Y3472561D01*
X3051450Y3485498D01*
Y3499502D01*
X3046091Y3512439D01*
X3036189Y3522341D01*
X3023252Y3527700D01*
D02*
G37*
G36*
X5391802Y3502300D02*
X5377798D01*
X5364861Y3496941D01*
X5354959Y3487039D01*
X5349600Y3474102D01*
Y3460098D01*
X5354959Y3447161D01*
X5364861Y3437259D01*
X5377798Y3431900D01*
X5391802D01*
X5404739Y3437259D01*
X5414641Y3447161D01*
X5420000Y3460098D01*
Y3474102D01*
X5414641Y3487039D01*
X5404739Y3496941D01*
X5391802Y3502300D01*
D02*
G37*
G36*
X5240602Y3463000D02*
X5226598D01*
X5213661Y3457641D01*
X5203759Y3447739D01*
X5198400Y3434802D01*
Y3420798D01*
X5203759Y3407861D01*
X5213661Y3397959D01*
X5226598Y3392600D01*
X5240602D01*
X5253539Y3397959D01*
X5263441Y3407861D01*
X5268800Y3420798D01*
Y3434802D01*
X5263441Y3447739D01*
X5253539Y3457641D01*
X5240602Y3463000D01*
D02*
G37*
G36*
X4778102Y3430200D02*
X4764098D01*
X4751161Y3424841D01*
X4741259Y3414939D01*
X4735900Y3402002D01*
Y3387998D01*
X4741259Y3375061D01*
X4751161Y3365159D01*
X4764098Y3359800D01*
X4778102D01*
X4791039Y3365159D01*
X4800941Y3375061D01*
X4806300Y3387998D01*
Y3402002D01*
X4800941Y3414939D01*
X4791039Y3424841D01*
X4778102Y3430200D01*
D02*
G37*
G36*
X3635102D02*
X3621098D01*
X3608161Y3424841D01*
X3598259Y3414939D01*
X3592900Y3402002D01*
Y3387998D01*
X3598259Y3375061D01*
X3608161Y3365159D01*
X3621098Y3359800D01*
X3635102D01*
X3648039Y3365159D01*
X3657941Y3375061D01*
X3663300Y3387998D01*
Y3402002D01*
X3657941Y3414939D01*
X3648039Y3424841D01*
X3635102Y3430200D01*
D02*
G37*
G36*
X4776502Y3330200D02*
X4762498D01*
X4749561Y3324841D01*
X4739659Y3314939D01*
X4734300Y3302002D01*
Y3287998D01*
X4739659Y3275061D01*
X4749561Y3265159D01*
X4762498Y3259800D01*
X4776502D01*
X4789439Y3265159D01*
X4799341Y3275061D01*
X4804700Y3287998D01*
Y3302002D01*
X4799341Y3314939D01*
X4789439Y3324841D01*
X4776502Y3330200D01*
D02*
G37*
G36*
X4774902Y3230200D02*
X4760898D01*
X4747961Y3224841D01*
X4738059Y3214939D01*
X4732700Y3202002D01*
Y3187998D01*
X4738059Y3175061D01*
X4747961Y3165159D01*
X4760898Y3159800D01*
X4774902D01*
X4787839Y3165159D01*
X4797741Y3175061D01*
X4803100Y3187998D01*
Y3202002D01*
X4797741Y3214939D01*
X4787839Y3224841D01*
X4774902Y3230200D01*
D02*
G37*
G36*
X5479902Y3311000D02*
X5465898D01*
X5452961Y3305641D01*
X5443059Y3295739D01*
X5437700Y3282802D01*
Y3268798D01*
X5443059Y3255861D01*
X5452961Y3245959D01*
X5465898Y3240600D01*
X5478784D01*
X5482603Y3237768D01*
X5489300Y3230747D01*
Y3220853D01*
X5482603Y3213832D01*
X5478784Y3211000D01*
X5465898D01*
X5452961Y3205641D01*
X5443059Y3195739D01*
X5437700Y3182802D01*
Y3168798D01*
X5443059Y3155861D01*
X5452961Y3145959D01*
X5465898Y3140600D01*
X5479902D01*
X5492839Y3145959D01*
X5502741Y3155861D01*
X5508100Y3168798D01*
Y3180747D01*
X5514797Y3187768D01*
X5518616Y3190600D01*
X5531502D01*
X5544439Y3195959D01*
X5554341Y3205861D01*
X5559700Y3218798D01*
Y3232802D01*
X5554341Y3245739D01*
X5544439Y3255641D01*
X5531502Y3261000D01*
X5518616D01*
X5514797Y3263832D01*
X5508100Y3270853D01*
Y3282802D01*
X5502741Y3295739D01*
X5492839Y3305641D01*
X5479902Y3311000D01*
D02*
G37*
G36*
X6674502Y3210200D02*
X6660498D01*
X6647561Y3204841D01*
X6637659Y3194939D01*
X6632300Y3182002D01*
Y3167998D01*
X6637659Y3155061D01*
X6647561Y3145159D01*
X6660498Y3139800D01*
X6674502D01*
X6687439Y3145159D01*
X6697341Y3155061D01*
X6702700Y3167998D01*
Y3182002D01*
X6697341Y3194939D01*
X6687439Y3204841D01*
X6674502Y3210200D01*
D02*
G37*
G36*
X6357002D02*
X6342998D01*
X6330061Y3204841D01*
X6320159Y3194939D01*
X6314800Y3182002D01*
Y3167998D01*
X6320159Y3155061D01*
X6330061Y3145159D01*
X6342998Y3139800D01*
X6357002D01*
X6369939Y3145159D01*
X6379841Y3155061D01*
X6385200Y3167998D01*
Y3182002D01*
X6379841Y3194939D01*
X6369939Y3204841D01*
X6357002Y3210200D01*
D02*
G37*
G36*
X6039502D02*
X6025498D01*
X6012561Y3204841D01*
X6002659Y3194939D01*
X5997300Y3182002D01*
Y3167998D01*
X6002659Y3155061D01*
X6012561Y3145159D01*
X6025498Y3139800D01*
X6039502D01*
X6052439Y3145159D01*
X6062341Y3155061D01*
X6067700Y3167998D01*
Y3182002D01*
X6062341Y3194939D01*
X6052439Y3204841D01*
X6039502Y3210200D01*
D02*
G37*
G36*
X5722002D02*
X5707998D01*
X5695061Y3204841D01*
X5685159Y3194939D01*
X5679800Y3182002D01*
Y3167998D01*
X5685159Y3155061D01*
X5695061Y3145159D01*
X5707998Y3139800D01*
X5722002D01*
X5734939Y3145159D01*
X5744841Y3155061D01*
X5750200Y3167998D01*
Y3182002D01*
X5744841Y3194939D01*
X5734939Y3204841D01*
X5722002Y3210200D01*
D02*
G37*
G36*
X4134502D02*
X4120498D01*
X4107561Y3204841D01*
X4097659Y3194939D01*
X4092300Y3182002D01*
Y3167998D01*
X4097659Y3155061D01*
X4107561Y3145159D01*
X4120498Y3139800D01*
X4134502D01*
X4147439Y3145159D01*
X4157341Y3155061D01*
X4162700Y3167998D01*
Y3182002D01*
X4157341Y3194939D01*
X4147439Y3204841D01*
X4134502Y3210200D01*
D02*
G37*
G36*
X3817002D02*
X3802998D01*
X3790061Y3204841D01*
X3780159Y3194939D01*
X3774800Y3182002D01*
Y3167998D01*
X3780159Y3155061D01*
X3790061Y3145159D01*
X3802998Y3139800D01*
X3817002D01*
X3829939Y3145159D01*
X3839841Y3155061D01*
X3845200Y3167998D01*
Y3182002D01*
X3839841Y3194939D01*
X3829939Y3204841D01*
X3817002Y3210200D01*
D02*
G37*
G36*
X7776520Y3323940D02*
X7750679D01*
X7725719Y3317252D01*
X7703340Y3304331D01*
X7685068Y3286059D01*
X7672148Y3263681D01*
X7665460Y3238720D01*
Y3212880D01*
X7672148Y3187919D01*
X7685068Y3165541D01*
X7703340Y3147269D01*
X7725719Y3134348D01*
X7750679Y3127660D01*
X7776520D01*
X7801480Y3134348D01*
X7823859Y3147269D01*
X7842131Y3165541D01*
X7855052Y3187919D01*
X7861740Y3212880D01*
Y3238720D01*
X7855052Y3263681D01*
X7842131Y3286059D01*
X7823859Y3304331D01*
X7801480Y3317252D01*
X7776520Y3323940D01*
D02*
G37*
G36*
X2866521D02*
X2840680D01*
X2815720Y3317252D01*
X2793341Y3304331D01*
X2775069Y3286059D01*
X2762148Y3263681D01*
X2755460Y3238720D01*
Y3212880D01*
X2762148Y3187919D01*
X2775069Y3165541D01*
X2793341Y3147269D01*
X2815720Y3134348D01*
X2840680Y3127660D01*
X2866521D01*
X2891481Y3134348D01*
X2913860Y3147269D01*
X2932132Y3165541D01*
X2945052Y3187919D01*
X2951740Y3212880D01*
Y3238720D01*
X2945052Y3263681D01*
X2932132Y3286059D01*
X2913860Y3304331D01*
X2891481Y3317252D01*
X2866521Y3323940D01*
D02*
G37*
G36*
X5290602Y3070100D02*
X5276598D01*
X5263661Y3064741D01*
X5253759Y3054839D01*
X5248400Y3041902D01*
Y3027898D01*
X5253759Y3014961D01*
X5263661Y3005059D01*
X5276598Y2999700D01*
X5290602D01*
X5303539Y3005059D01*
X5313441Y3014961D01*
X5318800Y3027898D01*
Y3041902D01*
X5313441Y3054839D01*
X5303539Y3064741D01*
X5290602Y3070100D01*
D02*
G37*
G36*
X4771702Y3030200D02*
X4757698D01*
X4744761Y3024841D01*
X4734859Y3014939D01*
X4729500Y3002002D01*
Y2987998D01*
X4734859Y2975061D01*
X4744761Y2965159D01*
X4757698Y2959800D01*
X4771702D01*
X4784639Y2965159D01*
X4794541Y2975061D01*
X4799900Y2987998D01*
Y3002002D01*
X4794541Y3014939D01*
X4784639Y3024841D01*
X4771702Y3030200D01*
D02*
G37*
G36*
X3637002D02*
X3622998D01*
X3610061Y3024841D01*
X3600159Y3014939D01*
X3594800Y3002002D01*
Y2987998D01*
X3600159Y2975061D01*
X3610061Y2965159D01*
X3622998Y2959800D01*
X3637002D01*
X3649939Y2965159D01*
X3659841Y2975061D01*
X3665200Y2987998D01*
Y3002002D01*
X3659841Y3014939D01*
X3649939Y3024841D01*
X3637002Y3030200D01*
D02*
G37*
G36*
X4769502Y2930800D02*
X4755498D01*
X4742561Y2925441D01*
X4732659Y2915539D01*
X4727300Y2902602D01*
Y2888598D01*
X4732659Y2875661D01*
X4742561Y2865759D01*
X4755498Y2860400D01*
X4769502D01*
X4782439Y2865759D01*
X4792341Y2875661D01*
X4797700Y2888598D01*
Y2902602D01*
X4792341Y2915539D01*
X4782439Y2925441D01*
X4769502Y2930800D01*
D02*
G37*
G36*
X6833252Y2892700D02*
X6819248D01*
X6806311Y2887341D01*
X6796409Y2877439D01*
X6791050Y2864502D01*
Y2850498D01*
X6796409Y2837561D01*
X6806311Y2827659D01*
X6819248Y2822300D01*
X6833252D01*
X6846189Y2827659D01*
X6856091Y2837561D01*
X6861450Y2850498D01*
Y2864502D01*
X6856091Y2877439D01*
X6846189Y2887341D01*
X6833252Y2892700D01*
D02*
G37*
G36*
X6515752D02*
X6501748D01*
X6488811Y2887341D01*
X6478909Y2877439D01*
X6473550Y2864502D01*
Y2850498D01*
X6478909Y2837561D01*
X6488811Y2827659D01*
X6501748Y2822300D01*
X6515752D01*
X6528689Y2827659D01*
X6538591Y2837561D01*
X6543950Y2850498D01*
Y2864502D01*
X6538591Y2877439D01*
X6528689Y2887341D01*
X6515752Y2892700D01*
D02*
G37*
G36*
X6198252D02*
X6184248D01*
X6171311Y2887341D01*
X6161409Y2877439D01*
X6156050Y2864502D01*
Y2850498D01*
X6161409Y2837561D01*
X6171311Y2827659D01*
X6184248Y2822300D01*
X6198252D01*
X6211189Y2827659D01*
X6221091Y2837561D01*
X6226450Y2850498D01*
Y2864502D01*
X6221091Y2877439D01*
X6211189Y2887341D01*
X6198252Y2892700D01*
D02*
G37*
G36*
X5880752D02*
X5866748D01*
X5853811Y2887341D01*
X5843909Y2877439D01*
X5838550Y2864502D01*
Y2850498D01*
X5843909Y2837561D01*
X5853811Y2827659D01*
X5866748Y2822300D01*
X5880752D01*
X5893689Y2827659D01*
X5903591Y2837561D01*
X5908950Y2850498D01*
Y2864502D01*
X5903591Y2877439D01*
X5893689Y2887341D01*
X5880752Y2892700D01*
D02*
G37*
G36*
X5563252D02*
X5549248D01*
X5536311Y2887341D01*
X5526409Y2877439D01*
X5521050Y2864502D01*
Y2850498D01*
X5526409Y2837561D01*
X5536311Y2827659D01*
X5549248Y2822300D01*
X5563252D01*
X5576189Y2827659D01*
X5586091Y2837561D01*
X5591450Y2850498D01*
Y2864502D01*
X5586091Y2877439D01*
X5576189Y2887341D01*
X5563252Y2892700D01*
D02*
G37*
G36*
X4837202Y2630200D02*
X4823198D01*
X4810261Y2624841D01*
X4800359Y2614939D01*
X4795000Y2602002D01*
Y2587998D01*
X4800359Y2575061D01*
X4810261Y2565159D01*
X4823198Y2559800D01*
X4837202D01*
X4850139Y2565159D01*
X4860041Y2575061D01*
X4865400Y2587998D01*
Y2602002D01*
X4860041Y2614939D01*
X4850139Y2624841D01*
X4837202Y2630200D01*
D02*
G37*
G36*
X7627002Y2575200D02*
X7612998D01*
X7600061Y2569841D01*
X7590159Y2559939D01*
X7584800Y2547002D01*
Y2532998D01*
X7590159Y2520061D01*
X7600061Y2510159D01*
X7612998Y2504800D01*
X7627002D01*
X7639939Y2510159D01*
X7649841Y2520061D01*
X7655200Y2532998D01*
Y2547002D01*
X7649841Y2559939D01*
X7639939Y2569841D01*
X7627002Y2575200D01*
D02*
G37*
G36*
X7309502D02*
X7295498D01*
X7282561Y2569841D01*
X7272659Y2559939D01*
X7267300Y2547002D01*
Y2532998D01*
X7272659Y2520061D01*
X7282561Y2510159D01*
X7295498Y2504800D01*
X7309502D01*
X7322439Y2510159D01*
X7332341Y2520061D01*
X7337700Y2532998D01*
Y2547002D01*
X7332341Y2559939D01*
X7322439Y2569841D01*
X7309502Y2575200D01*
D02*
G37*
G36*
X6992002D02*
X6977998D01*
X6965061Y2569841D01*
X6955159Y2559939D01*
X6949800Y2547002D01*
Y2532998D01*
X6955159Y2520061D01*
X6965061Y2510159D01*
X6977998Y2504800D01*
X6992002D01*
X7004939Y2510159D01*
X7014841Y2520061D01*
X7020200Y2532998D01*
Y2547002D01*
X7014841Y2559939D01*
X7004939Y2569841D01*
X6992002Y2575200D01*
D02*
G37*
G36*
X6674502D02*
X6660498D01*
X6647561Y2569841D01*
X6637659Y2559939D01*
X6632300Y2547002D01*
Y2532998D01*
X6637659Y2520061D01*
X6647561Y2510159D01*
X6660498Y2504800D01*
X6674502D01*
X6687439Y2510159D01*
X6697341Y2520061D01*
X6702700Y2532998D01*
Y2547002D01*
X6697341Y2559939D01*
X6687439Y2569841D01*
X6674502Y2575200D01*
D02*
G37*
G36*
X6357002D02*
X6342998D01*
X6330061Y2569841D01*
X6320159Y2559939D01*
X6314800Y2547002D01*
Y2532998D01*
X6320159Y2520061D01*
X6330061Y2510159D01*
X6342998Y2504800D01*
X6357002D01*
X6369939Y2510159D01*
X6379841Y2520061D01*
X6385200Y2532998D01*
Y2547002D01*
X6379841Y2559939D01*
X6369939Y2569841D01*
X6357002Y2575200D01*
D02*
G37*
G36*
X6039502D02*
X6025498D01*
X6012561Y2569841D01*
X6002659Y2559939D01*
X5997300Y2547002D01*
Y2532998D01*
X6002659Y2520061D01*
X6012561Y2510159D01*
X6025498Y2504800D01*
X6039502D01*
X6052439Y2510159D01*
X6062341Y2520061D01*
X6067700Y2532998D01*
Y2547002D01*
X6062341Y2559939D01*
X6052439Y2569841D01*
X6039502Y2575200D01*
D02*
G37*
G36*
X5722002D02*
X5707998D01*
X5695061Y2569841D01*
X5685159Y2559939D01*
X5679800Y2547002D01*
Y2532998D01*
X5685159Y2520061D01*
X5695061Y2510159D01*
X5707998Y2504800D01*
X5722002D01*
X5734939Y2510159D01*
X5744841Y2520061D01*
X5750200Y2532998D01*
Y2547002D01*
X5744841Y2559939D01*
X5734939Y2569841D01*
X5722002Y2575200D01*
D02*
G37*
G36*
X5404502D02*
X5390498D01*
X5377561Y2569841D01*
X5367659Y2559939D01*
X5362300Y2547002D01*
Y2532998D01*
X5367659Y2520061D01*
X5377561Y2510159D01*
X5390498Y2504800D01*
X5404502D01*
X5417439Y2510159D01*
X5427341Y2520061D01*
X5432700Y2532998D01*
Y2547002D01*
X5427341Y2559939D01*
X5417439Y2569841D01*
X5404502Y2575200D01*
D02*
G37*
G36*
X5087002D02*
X5072998D01*
X5060061Y2569841D01*
X5050159Y2559939D01*
X5044800Y2547002D01*
Y2532998D01*
X5050159Y2520061D01*
X5060061Y2510159D01*
X5072998Y2504800D01*
X5087002D01*
X5099939Y2510159D01*
X5109841Y2520061D01*
X5115200Y2532998D01*
Y2547002D01*
X5109841Y2559939D01*
X5099939Y2569841D01*
X5087002Y2575200D01*
D02*
G37*
G36*
X4769502D02*
X4755498D01*
X4742561Y2569841D01*
X4732659Y2559939D01*
X4727300Y2547002D01*
Y2532998D01*
X4732659Y2520061D01*
X4742561Y2510159D01*
X4755498Y2504800D01*
X4769502D01*
X4782439Y2510159D01*
X4792341Y2520061D01*
X4797700Y2532998D01*
Y2547002D01*
X4792341Y2559939D01*
X4782439Y2569841D01*
X4769502Y2575200D01*
D02*
G37*
G36*
X3182002D02*
X3167998D01*
X3155061Y2569841D01*
X3145159Y2559939D01*
X3139800Y2547002D01*
Y2532998D01*
X3145159Y2520061D01*
X3155061Y2510159D01*
X3167998Y2504800D01*
X3182002D01*
X3194939Y2510159D01*
X3204841Y2520061D01*
X3210200Y2532998D01*
Y2547002D01*
X3204841Y2559939D01*
X3194939Y2569841D01*
X3182002Y2575200D01*
D02*
G37*
G36*
X2864502D02*
X2850498D01*
X2837561Y2569841D01*
X2827659Y2559939D01*
X2822300Y2547002D01*
Y2532998D01*
X2827659Y2520061D01*
X2837561Y2510159D01*
X2850498Y2504800D01*
X2864502D01*
X2877439Y2510159D01*
X2887341Y2520061D01*
X2892700Y2532998D01*
Y2547002D01*
X2887341Y2559939D01*
X2877439Y2569841D01*
X2864502Y2575200D01*
D02*
G37*
%LPD*%
D24*
X7763600Y3225800D02*
D03*
X2853600D02*
D03*
D25*
X7763600Y2695800D02*
D03*
D26*
X7778750Y2857500D02*
D03*
X7620000Y2540000D02*
D03*
X7302500D02*
D03*
X6985000Y3810000D02*
D03*
Y2540000D02*
D03*
X6667500Y3810000D02*
D03*
Y3175000D02*
D03*
X6826250Y2857500D02*
D03*
X6667500Y2540000D02*
D03*
X6350000Y3810000D02*
D03*
Y3175000D02*
D03*
X6508750Y2857500D02*
D03*
X6350000Y2540000D02*
D03*
X6032500Y3810000D02*
D03*
Y3175000D02*
D03*
X6191250Y2857500D02*
D03*
X6032500Y2540000D02*
D03*
X5715000Y3810000D02*
D03*
Y3175000D02*
D03*
X5873750Y2857500D02*
D03*
X5715000Y2540000D02*
D03*
X5397500Y3810000D02*
D03*
X5556250Y2857500D02*
D03*
X5397500Y2540000D02*
D03*
X5080000Y3810000D02*
D03*
Y2540000D02*
D03*
X4762500Y3810000D02*
D03*
Y2540000D02*
D03*
X4127500Y3175000D02*
D03*
X3810000D02*
D03*
X3175000Y2540000D02*
D03*
X2857500Y3810000D02*
D03*
X3016250Y3492500D02*
D03*
X2857500Y2540000D02*
D03*
X7162800Y3048000D02*
D03*
X7100556Y3048907D02*
D03*
X7035800Y3048000D02*
D03*
X7188200Y3098800D02*
D03*
X7124700D02*
D03*
X7061200D02*
D03*
X6997700D02*
D03*
X4546600Y3911600D02*
D03*
X5054600Y3352800D02*
D03*
X5308600Y2946400D02*
D03*
X5283600Y3034900D02*
D03*
X7835900Y3035300D02*
D03*
X4830200Y2595000D02*
D03*
X7620000Y3644900D02*
D03*
Y3708400D02*
D03*
X3630000Y2995000D02*
D03*
X5384800Y3467100D02*
D03*
X7366000Y3644900D02*
D03*
X5472900Y3275800D02*
D03*
Y3175800D02*
D03*
X4762500Y2895600D02*
D03*
X4767900Y3195000D02*
D03*
X4763200Y3695000D02*
D03*
X4271200Y3674300D02*
D03*
X7747000Y3708400D02*
D03*
X7493000D02*
D03*
Y3644900D02*
D03*
X7366000Y3702600D02*
D03*
X4764700Y2995000D02*
D03*
X4771100Y3395000D02*
D03*
X4769500Y3295000D02*
D03*
X5233600Y3427800D02*
D03*
X5524500Y3225800D02*
D03*
X3631904Y3692702D02*
D03*
X3628100Y3395000D02*
D03*
X3629700Y3495000D02*
D03*
X3631300Y3595000D02*
D03*
%TF.MD5,ffda5cc6731d2fbfae822a1ef2dbf6c2*%
M02*
