%TF.GenerationSoftware,Altium Limited,Altium Designer,23.6.0 (18)*%
G04 Layer_Color=8421504*
%FSLAX45Y45*%
%MOMM*%
%TF.SameCoordinates,DE65B9CC-D9CF-42CD-B8C9-10693606ABAB*%
%TF.FilePolarity,Positive*%
%TF.FileFunction,Paste,Top*%
%TF.Part,Single*%
G01*
G75*
%TA.AperFunction,ConnectorPad*%
%ADD10R,2.40000X0.60000*%
%ADD11R,0.60000X2.40000*%
%TA.AperFunction,SMDPad,CuDef*%
%ADD12R,0.75000X0.60000*%
%TA.AperFunction,ConnectorPad*%
%ADD13R,1.40000X0.75000*%
%ADD14R,0.75000X2.40000*%
%TA.AperFunction,SMDPad,CuDef*%
%ADD15R,0.65000X1.60000*%
G04:AMPARAMS|DCode=16|XSize=0.86535mm|YSize=0.29247mm|CornerRadius=0.14624mm|HoleSize=0mm|Usage=FLASHONLY|Rotation=0.000|XOffset=0mm|YOffset=0mm|HoleType=Round|Shape=RoundedRectangle|*
%AMROUNDEDRECTD16*
21,1,0.86535,0.00000,0,0,0.0*
21,1,0.57288,0.29247,0,0,0.0*
1,1,0.29247,0.28644,0.00000*
1,1,0.29247,-0.28644,0.00000*
1,1,0.29247,-0.28644,0.00000*
1,1,0.29247,0.28644,0.00000*
%
%ADD16ROUNDEDRECTD16*%
%ADD17R,0.86535X0.29247*%
%ADD18R,0.60000X0.64000*%
%ADD19R,0.64000X0.60000*%
%TA.AperFunction,NonConductor*%
%ADD39R,0.52922X0.30422*%
%ADD40R,0.52922X0.30422*%
%ADD41R,0.30422X0.52922*%
%ADD42R,0.30422X0.52922*%
D10*
X3460900Y2495000D02*
D03*
Y2595000D02*
D03*
Y2695000D02*
D03*
Y2795000D02*
D03*
Y2895000D02*
D03*
Y2995000D02*
D03*
Y3095000D02*
D03*
Y3195000D02*
D03*
Y3295000D02*
D03*
Y3395000D02*
D03*
Y3495000D02*
D03*
Y3595000D02*
D03*
Y3695000D02*
D03*
Y3795000D02*
D03*
X4590900D02*
D03*
Y3695000D02*
D03*
Y3595000D02*
D03*
Y3495000D02*
D03*
Y3395000D02*
D03*
Y3295000D02*
D03*
Y3195000D02*
D03*
Y3095000D02*
D03*
Y2995000D02*
D03*
Y2895000D02*
D03*
Y2795000D02*
D03*
Y2695000D02*
D03*
Y2595000D02*
D03*
Y2495000D02*
D03*
D11*
X3675900Y3845000D02*
D03*
X3775900D02*
D03*
X3875900D02*
D03*
X3975900D02*
D03*
X4075900D02*
D03*
X4175900D02*
D03*
X4275900D02*
D03*
X4375900D02*
D03*
D12*
X2908300Y3015900D02*
D03*
X2793300D02*
D03*
X3071459Y3015900D02*
D03*
X3186459D02*
D03*
X2902300Y2870200D02*
D03*
X2787300D02*
D03*
X3071459D02*
D03*
X3186459D02*
D03*
X2902300Y2717800D02*
D03*
X2787300D02*
D03*
X3071459D02*
D03*
X3186459D02*
D03*
X7397400Y2705100D02*
D03*
X7512400D02*
D03*
D13*
X3149600Y3788300D02*
D03*
Y3933300D02*
D03*
D14*
X7747000Y3869800D02*
D03*
X7620000D02*
D03*
X7493000D02*
D03*
X7366000D02*
D03*
X7239000D02*
D03*
X7747000Y3479800D02*
D03*
X7620000D02*
D03*
X7493000D02*
D03*
X7366000D02*
D03*
X7239000D02*
D03*
D15*
X7378700Y3187700D02*
D03*
X7513700D02*
D03*
D16*
X7543800Y2974800D02*
D03*
Y2909800D02*
D03*
Y2844800D02*
D03*
X7363087D02*
D03*
Y2909800D02*
D03*
D17*
Y2974800D02*
D03*
D18*
X5124900Y2946400D02*
D03*
X5212900D02*
D03*
X4788800Y3924300D02*
D03*
X4876800D02*
D03*
X5212900Y2819400D02*
D03*
X5124900D02*
D03*
D19*
X7645400Y2851600D02*
D03*
Y2939600D02*
D03*
X5054600Y3275700D02*
D03*
Y3187700D02*
D03*
X7061200Y2926900D02*
D03*
Y2838900D02*
D03*
X7188200Y2926900D02*
D03*
Y2838900D02*
D03*
D39*
X5399850Y3275800D02*
D03*
Y3175800D02*
D03*
X5217350D02*
D03*
Y3275800D02*
D03*
D40*
X5399844Y3225798D02*
D03*
X5217344D02*
D03*
D41*
X5383600Y3109550D02*
D03*
X5233600D02*
D03*
Y3342050D02*
D03*
X5383600D02*
D03*
D42*
X5333594Y3109549D02*
D03*
X5283594D02*
D03*
Y3342048D02*
D03*
X5333594D02*
D03*
%TF.MD5,e66d802cebfe035abbfebe1ecc24e755*%
M02*
