%TF.GenerationSoftware,Altium Limited,Altium Designer,23.6.0 (18)*%
G04 Layer_Color=0*
%FSLAX45Y45*%
%MOMM*%
%TF.SameCoordinates,DE65B9CC-D9CF-42CD-B8C9-10693606ABAB*%
%TF.FilePolarity,Positive*%
%TF.FileFunction,Plated,1,6,PTH,Drill*%
%TF.Part,Single*%
G01*
G75*
%TA.AperFunction,ComponentDrill*%
%ADD45C,1.19000*%
%TA.AperFunction,ViaDrill,NotFilled*%
%ADD46C,0.20000*%
D45*
X7763600Y3225800D02*
D03*
X2853600D02*
D03*
D46*
X7778750Y2857500D02*
D03*
X7620000Y2540000D02*
D03*
X7302500D02*
D03*
X6985000Y3810000D02*
D03*
Y2540000D02*
D03*
X6667500Y3810000D02*
D03*
Y3175000D02*
D03*
X6826250Y2857500D02*
D03*
X6667500Y2540000D02*
D03*
X6350000Y3810000D02*
D03*
Y3175000D02*
D03*
X6508750Y2857500D02*
D03*
X6350000Y2540000D02*
D03*
X6032500Y3810000D02*
D03*
Y3175000D02*
D03*
X6191250Y2857500D02*
D03*
X6032500Y2540000D02*
D03*
X5715000Y3810000D02*
D03*
Y3175000D02*
D03*
X5873750Y2857500D02*
D03*
X5715000Y2540000D02*
D03*
X5397500Y3810000D02*
D03*
X5556250Y2857500D02*
D03*
X5397500Y2540000D02*
D03*
X5080000Y3810000D02*
D03*
Y2540000D02*
D03*
X4762500Y3810000D02*
D03*
Y2540000D02*
D03*
X4127500Y3175000D02*
D03*
X3810000D02*
D03*
X3175000Y2540000D02*
D03*
X2857500Y3810000D02*
D03*
X3016250Y3492500D02*
D03*
X2857500Y2540000D02*
D03*
X7162800Y3048000D02*
D03*
X7100556Y3048907D02*
D03*
X7035800Y3048000D02*
D03*
X7188200Y3098800D02*
D03*
X7124700D02*
D03*
X7061200D02*
D03*
X6997700D02*
D03*
X4546600Y3911600D02*
D03*
X5054600Y3352800D02*
D03*
X5308600Y2946400D02*
D03*
X5283600Y3034900D02*
D03*
X7835900Y3035300D02*
D03*
X4830200Y2595000D02*
D03*
X7620000Y3644900D02*
D03*
Y3708400D02*
D03*
X3630000Y2995000D02*
D03*
X5384800Y3467100D02*
D03*
X7366000Y3644900D02*
D03*
X5472900Y3275800D02*
D03*
Y3175800D02*
D03*
X4762500Y2895600D02*
D03*
X4767900Y3195000D02*
D03*
X4763200Y3695000D02*
D03*
X4271200Y3674300D02*
D03*
X7747000Y3708400D02*
D03*
X7493000D02*
D03*
Y3644900D02*
D03*
X7366000Y3702600D02*
D03*
X4764700Y2995000D02*
D03*
X4771100Y3395000D02*
D03*
X4769500Y3295000D02*
D03*
X5233600Y3427800D02*
D03*
X5524500Y3225800D02*
D03*
X3631904Y3692702D02*
D03*
X3628100Y3395000D02*
D03*
X3629700Y3495000D02*
D03*
X3631300Y3595000D02*
D03*
%TF.MD5,b4b813864329734cbd286fe28ff73a00*%
M02*
